<svg width="30" height="30" viewBox="0 0 30 30" fill="none" xmlns="http://www.w3.org/2000/svg">
<path d="M6.13391 23.866L6.39876 23.6554C6.74358 23.3648 7.05457 23.0357 7.32559 22.6744C9.3003 20.0415 8.76676 16.3063 6.13391 14.3316L5.86905 14.5423C5.52423 14.8329 5.21324 15.162 4.94223 15.5233C2.96752 18.1562 3.50105 21.8913 6.13391 23.866ZM6.13391 23.866L6.3446 24.131C6.63526 24.4758 6.96438 24.7869 7.32579 25.0579C9.95856 27.0324 13.6935 26.4988 15.668 23.866L15.4573 23.6011C15.1666 23.2563 14.8375 22.9452 14.4761 22.6742C11.8433 20.6997 8.10841 21.2333 6.13391 23.866ZM10.901 19.0988L11.1658 18.8882C11.5106 18.5976 11.8216 18.2685 12.0926 17.9072C14.0673 15.2743 13.5338 11.5391 10.901 9.56442L10.6361 9.77508C10.2913 10.0657 9.98029 10.3948 9.70927 10.7561C7.73456 13.389 8.2681 17.1241 10.901 19.0988ZM10.901 19.0988L11.1116 19.3637C11.4023 19.7086 11.7314 20.0197 12.0928 20.2907C14.7256 22.2652 18.4605 21.7316 20.435 19.0988L20.2244 18.8339C19.9337 18.4891 19.6046 18.178 19.2432 17.907C16.6104 15.9324 12.8755 16.4661 10.901 19.0988ZM15.668 14.3316L15.9329 14.121C16.2777 13.8303 16.5887 13.5013 16.8597 13.1399C18.8344 10.5071 18.3009 6.77192 15.668 4.79721L15.4031 5.00787C15.0583 5.29849 14.7473 5.62755 14.4763 5.98889C12.5016 8.62175 13.0351 12.3569 15.668 14.3316ZM15.668 14.3316L15.8787 14.5965C16.1694 14.9414 16.4985 15.2525 16.8599 15.5235C19.4927 17.498 23.2276 16.9644 25.2021 14.3316L24.9914 14.0667C24.7007 13.7218 24.3716 13.4108 24.0102 13.1397C21.3774 11.1652 17.6425 11.6989 15.668 14.3316ZM26.1894 3.80989C26.6548 7.06804 24.3911 10.0864 21.1332 10.5518C20.686 10.6156 20.2334 10.6284 19.784 10.5901L19.4477 10.5515C18.9823 7.2936 21.2461 4.27528 24.504 3.80989C25.0629 3.73004 25.6304 3.73004 26.1894 3.80989Z" stroke="black" stroke-width="1.25" stroke-linecap="round"/>
</svg>
