<svg width="28" height="28" viewBox="0 0 28 28" fill="none" xmlns="http://www.w3.org/2000/svg">
<path d="M5.95018 25.0835C5.68582 24.9969 5.45085 24.8824 5.19186 24.7912C4.76556 24.3229 4.52779 23.6663 4.0252 23.2745H3.09187C2.62756 23.2172 2.15936 23.1977 1.69189 23.2162C1.56355 23.1116 1.27632 23.1653 1.10856 23.0995C1.02602 23.0743 0.950947 23.0292 0.889921 22.9681C0.828896 22.9071 0.783788 22.832 0.75856 22.7495C0.77256 22.4914 0.959925 22.4065 1.16689 22.3412C1.38645 22.2889 1.69399 22.3239 1.86688 22.2245H3.44164C3.74625 22.1557 4.0599 22.1358 4.37076 22.1657C4.5733 22.1727 4.77536 22.1795 4.95829 22.1657C5.04369 22.0819 5.22522 22.0941 5.40675 22.1062C5.50976 22.1169 5.61361 22.1169 5.71662 22.1062C6.36365 22.1113 7.01884 22.1085 7.67404 22.1062C9.38132 22.099 11.0891 22.092 12.658 22.2229C12.8213 22.0654 12.5154 22.1188 12.4832 21.9895C12.3498 21.9736 12.2261 21.9117 12.1332 21.8145C11.9001 21.7115 11.6838 21.5741 11.4916 21.4067C11.1182 21.08 10.7533 20.7454 10.3835 20.4148C10.3063 20.2332 10.1862 20.0731 10.0335 19.9481C9.76189 19.3934 9.56571 18.8049 9.45015 18.1981C9.45342 17.6185 9.40722 16.9885 9.56682 16.5648C9.60403 16.5543 9.63625 16.5309 9.65766 16.4987C9.67906 16.4665 9.68822 16.4277 9.68348 16.3894C10.2138 15.8401 11.426 15.6971 12.4835 15.8644C13.9495 16.265 14.8597 17.2214 15.6334 18.3143C16.8188 16.5438 18.1002 14.8701 20.6501 14.4644C20.9389 14.4387 21.23 14.457 21.5134 14.5187C21.7663 14.5723 22.0251 14.5934 22.2834 14.5815C22.5498 14.7697 22.7532 15.034 22.8667 15.3398C23.0426 15.5916 23.059 16.0027 23.1584 16.3315V17.2648C22.9523 18.7115 22.1716 19.5834 21.3503 20.4148C20.9165 20.6808 20.5392 21.0039 20.1251 21.2895C19.7181 21.5632 19.2384 21.7651 18.9001 22.1062C20.1601 22.0255 21.3253 21.8484 22.6334 21.8145C23.2956 21.8045 23.9132 21.8393 24.5308 21.8743C25.1842 21.9109 25.8361 21.9478 26.5417 21.9319C27.1383 22.0735 27.8157 22.1349 28 22.6895C27.8019 22.8225 27.8077 23.1588 27.4167 23.0983C27.2744 23.11 27.1313 23.0996 26.9922 23.0675C26.8447 23.0329 26.6924 23.0234 26.5417 23.0395C25.9308 23.0092 25.3442 22.9539 24.675 22.9812C24.4377 22.9579 24.4956 23.2299 24.325 23.2729C24.3136 23.4756 24.1185 23.4945 24.0917 23.6812C23.9403 23.9577 23.8416 24.2865 23.6836 24.5567C21.4593 24.5074 19.5914 24.6178 17.6751 24.7312C16.7726 24.7846 15.8784 24.7953 14.9337 24.8478C13.9835 24.9346 13.0295 24.9735 12.0754 24.9645C10.1966 25.1467 8.1141 25.1257 6.06685 25.1395C6.06498 25.0849 5.99498 25.0963 5.95018 25.0835ZM15.6334 23.6835C15.9263 23.6959 16.2196 23.6765 16.5082 23.6257H17.7915C17.8564 23.6361 17.9229 23.6247 17.9805 23.5932C18.0476 23.5564 18.1262 23.547 18.2001 23.5669H19.0167C19.384 23.4675 19.9267 23.5435 20.3001 23.4502H21.7584C22.2806 23.4866 22.7279 23.4472 22.8084 23.0419H22.5165C22.4418 23.0451 22.4357 23.1168 22.3415 23.1007C20.2389 23.156 18.3177 23.393 16.1582 23.3923C16.0124 23.5181 15.6782 23.4567 15.6332 23.6831L15.6334 23.6835ZM5.95018 23.6835C6.03823 23.6892 6.12654 23.678 6.21035 23.6504C6.31417 23.6154 6.4251 23.6069 6.53305 23.6257V23.2757H5.59972C5.67695 23.4509 5.74578 23.6348 5.95018 23.6831V23.6835ZM7.35017 23.2752V23.5085C7.56834 23.6219 8.04737 23.5643 8.16683 23.3919C8.12896 23.3332 8.07527 23.2865 8.01198 23.2571C7.94868 23.2277 7.87836 23.2168 7.80913 23.2257C7.6612 23.2267 7.4953 23.2598 7.34994 23.2747L7.35017 23.2752ZM8.86683 23.2752V23.4504C9.22635 23.4923 9.59039 23.4316 9.91681 23.2752C9.73233 23.2842 9.54749 23.2832 9.36312 23.2722C9.24809 23.2673 9.13889 23.2626 9.04836 23.2626C8.98759 23.2606 8.92679 23.2647 8.86683 23.2747V23.2752ZM20.1834 17.9086C20.1942 18.0381 20.1668 18.1679 20.1046 18.282C20.0424 18.3961 19.9481 18.4894 19.8334 18.5505C19.6747 18.7224 19.5634 18.9418 19.3084 19.0171C19.0016 19.3713 18.5753 19.606 18.1998 19.8916C17.8494 20.2017 17.5183 20.5329 17.2082 20.8833C17.0003 21.0063 16.9049 21.241 16.7415 21.409C16.5743 21.5797 16.4363 21.7768 16.3332 21.9923C17.862 21.3241 19.1721 20.437 20.4748 19.5424C20.7355 19.1998 21.0883 18.9495 21.3501 18.609C21.4849 18.4261 21.602 18.2308 21.7 18.0257C21.8302 17.8444 21.8666 17.5698 21.9919 17.3838C22.0329 16.957 22.0329 16.5273 21.9919 16.1005C21.7661 15.9517 21.5325 15.8153 21.292 15.6917C19.7307 15.6667 18.9442 16.4164 18.0836 17.0917C17.689 17.5377 17.319 18.0051 16.9756 18.4917C16.7983 18.7509 16.6422 19.024 16.5089 19.3083C16.3614 19.5244 16.109 19.9012 16.2172 20.1838C16.2347 20.3224 16.3754 20.1187 16.3925 20.0671C16.4095 19.9483 16.5502 19.9528 16.5672 19.8338C16.7271 19.7236 16.8655 19.5852 16.9758 19.4255C17.3041 19.19 17.5724 18.8949 17.9091 18.6671C18.237 18.4191 18.5887 18.2042 18.9591 18.0257C19.2189 17.869 19.5092 17.7694 19.8105 17.7338C19.8822 17.7297 19.9538 17.7435 20.0189 17.7739C20.0839 17.8043 20.1404 17.8504 20.1832 17.9081L20.1834 17.9086ZM10.6168 17.034V17.1507C10.6037 17.7131 10.7056 18.2721 10.9162 18.7937C11.1268 19.3153 11.4417 19.7884 11.8416 20.184C12.2275 20.4331 12.5977 20.7058 12.9499 21.0007C13.1643 21.0191 13.2728 21.1442 13.4751 21.1757C13.6135 21.2151 13.8676 21.4393 14.0001 21.2923C13.8291 21.133 13.788 20.8432 13.5916 20.709C13.5092 20.4414 13.2675 20.3329 13.1832 20.0669C12.9846 19.9175 12.8079 19.741 12.6582 19.5426C12.4727 19.3779 12.2282 19.2726 12.2501 18.9005C12.2575 18.7947 12.3029 18.6952 12.3779 18.6202C12.4529 18.5453 12.5525 18.4999 12.6582 18.4926C13.316 18.4956 13.488 18.9847 13.8832 19.2509C14.0134 19.4514 14.2159 19.5776 14.3499 19.7755C14.4371 19.8632 14.4542 20.0214 14.5832 20.0669C14.642 20.1693 14.684 20.3802 14.8165 20.2421C14.8802 20.033 14.8802 19.8096 14.8165 19.6005C14.764 19.3968 14.6856 19.2008 14.5832 19.0171C14.3882 18.6966 14.1529 18.4024 13.8832 18.1417C13.3802 17.5947 12.8045 17.1208 11.8999 16.975H10.7332C10.6747 16.9748 10.6637 17.0224 10.6168 17.0336V17.034ZM1.40022 20.0674C1.28636 19.9092 1.12022 19.8018 1.05022 19.6007C0.950359 19.1758 0.770227 18.8307 0.641894 18.434C0.337534 17.6037 0.122359 16.7433 0 15.8674V13.9426C0.498862 10.6695 2.18492 8.58301 4.14163 6.76769C3.99623 6.5791 3.8903 6.36314 3.83016 6.13271C3.77003 5.90229 3.75693 5.66211 3.79163 5.42651C3.9125 5.41111 3.8075 5.16984 3.9083 5.13507C3.9258 5.01584 4.0665 5.02051 4.08353 4.90174C4.15073 4.69664 4.41416 4.68825 4.49186 4.49318C4.88153 4.33825 5.20912 4.12149 5.83328 4.20152C5.99498 4.31212 6.22995 4.34968 6.29995 4.55152C6.46328 4.64018 6.44998 4.90758 6.59161 5.01818C7.11521 4.80281 7.52167 4.47055 8.10826 4.31818C8.60842 4.04789 9.13653 3.83289 9.68325 3.67699C10.8671 3.25506 12.1038 2.99983 13.358 2.91867C13.4513 2.93523 13.4586 2.86336 13.5332 2.85986H15.458C16.4351 2.90813 17.3902 3.16697 18.2579 3.61866C19.0657 3.97682 19.6295 4.57998 20.1827 5.19318C20.3386 5.49526 20.475 5.807 20.591 6.1265C20.7397 6.4065 20.9982 6.57473 20.941 7.05983C20.8839 7.68282 20.3645 7.84405 20.0077 8.16768C19.6271 8.46751 19.3397 8.86068 18.9577 9.15934C18.2836 9.8269 17.4093 10.2943 16.6244 10.851C14.9397 11.8695 13.1221 12.7543 11.4911 13.8257C11.0593 14.061 10.6493 14.3343 10.2661 14.6424C10.0249 14.7295 9.80583 14.8689 9.62468 15.0505C9.40818 15.152 9.21084 15.2901 9.04136 15.4588C8.61274 15.6994 8.20314 15.9724 7.81613 16.2755C7.41173 16.5248 7.02219 16.7975 6.64948 17.0921C6.20475 17.3278 5.84285 17.6463 5.42449 17.9088C5.04789 18.2121 4.60176 18.4476 4.25783 18.7836C3.4239 19.2915 2.81328 20.0226 1.86618 20.4169C1.66365 20.3471 1.42915 20.31 1.40022 20.0664V20.0674ZM9.74158 5.01748C9.15499 5.22748 8.60479 5.47504 8.04993 5.71748C7.92649 5.8019 7.78781 5.86148 7.6416 5.89293C7.59331 5.95788 7.53211 6.01214 7.46183 6.05229C7.39156 6.09245 7.31375 6.11763 7.23327 6.12626C7.00313 6.3159 6.74795 6.47293 6.47495 6.59292C6.36458 6.73502 6.47285 7.09599 6.29948 7.17625C5.92502 7.46851 5.5356 7.7411 5.13282 7.99291C4.36417 8.85875 3.68041 9.79638 3.09094 10.7929C2.93834 11.4367 2.59581 11.8914 2.44928 12.5429C2.12472 13.0354 2.05402 13.7816 1.86595 14.4095C1.80455 15.1077 1.78507 15.809 1.80762 16.5095C1.99428 17.2174 2.28758 17.8185 2.50761 18.4928C2.61654 18.4801 2.72091 18.4417 2.81216 18.3809C2.90341 18.3201 2.97896 18.2385 3.03261 18.1428C3.26594 18.0845 3.36744 17.8946 3.5576 17.7928C3.88495 17.5101 4.23627 17.2564 4.60759 17.0345C4.87639 16.7195 5.31716 16.5767 5.59925 16.2757C6.01085 16.0846 6.28711 15.758 6.70781 15.5757C6.99294 15.2775 7.38914 15.0902 7.69947 14.8174C8.06358 14.5845 8.41415 14.3311 8.74946 14.0584C8.93858 13.9644 9.11499 13.8468 9.27446 13.7084C9.51152 13.6342 9.61279 13.4239 9.85778 13.3584C10.1394 13.0371 10.6259 12.9209 10.9078 12.5996C11.2916 12.4116 11.662 12.1973 12.0163 11.9584C12.42 11.7591 12.7707 11.5074 13.183 11.3163C13.9406 10.8879 14.6814 10.4427 15.4582 10.0329C15.7849 9.77627 16.2091 9.61761 16.5082 9.33294C16.9459 9.16751 17.1944 8.81308 17.6167 8.63295C17.8907 8.30395 18.299 8.10981 18.5501 7.75841C18.7288 7.64548 18.814 7.43852 18.9584 7.29175C19.1238 7.14592 19.4286 7.13962 19.4834 6.88342C19.4338 6.66016 19.3554 6.44431 19.2501 6.2413C19.0417 6.13887 19.0578 5.81127 18.9001 5.65797C17.8116 4.56902 16.1934 4.00855 13.8834 4.14132C13.809 4.14435 13.8027 4.21598 13.7087 4.19918C12.1783 4.26545 10.9509 4.63178 9.74158 5.01654V5.01748ZM5.13329 5.30915C5.13866 5.53711 5.17552 5.73404 5.36662 5.77581C5.66505 5.79634 5.62329 5.38661 5.54162 5.19248H5.52295C5.3866 5.20446 5.25407 5.24382 5.13329 5.30821V5.30915ZM3.32521 16.6257C2.82308 16.6218 2.77501 16.1647 2.74188 15.6924V14.1757C2.74024 14.0381 2.84221 14.0038 2.80021 13.8257C3.15301 12.2928 3.9202 11.1735 4.72496 10.0924C5.61162 9.09238 6.48358 8.07948 7.6416 7.35125C7.7634 7.37575 7.79583 7.31088 7.87493 7.29292C7.99059 7.27245 8.10977 7.28976 8.21483 7.34229C8.31988 7.39482 8.40524 7.47977 8.45826 7.58458C8.44963 8.43904 7.6717 8.61125 7.2916 9.15911C6.78481 9.54691 6.42968 10.0864 5.95042 10.5012C5.81438 10.8316 5.52529 11.0094 5.36709 11.3179C5.18976 11.5878 4.93962 11.7845 4.84209 12.1345C4.63023 12.3924 4.47162 12.6897 4.37543 13.0093C4.14816 13.2296 4.1519 13.6806 3.9671 13.9426C3.94829 14.2368 3.90931 14.5293 3.85043 14.8181V15.9848C3.72164 16.0508 3.84623 16.37 3.67497 16.3931C3.59704 16.4951 3.552 16.6297 3.37164 16.6299C3.35608 16.6292 3.34058 16.6277 3.32521 16.6252V16.6257Z" fill="black"/>
</svg>
